<mxfile host="app.diagrams.net" modified="2022-03-11T13:40:16.247Z" agent="5.0 (Windows NT 10.0; Win64; x64) AppleWebKit/537.36 (KHTML, like Gecko) Chrome/99.0.4844.51 Safari/537.36" etag="4oY6hqj83GWZjBy47qYk" version="17.1.2" type="github">
  <diagram id="UT_zF6Jm0kBMar1aESlK" name="Page-1">
    <mxGraphModel dx="1406" dy="633" grid="1" gridSize="10" guides="1" tooltips="1" connect="1" arrows="1" fold="1" page="1" pageScale="1" pageWidth="827" pageHeight="1169" math="0" shadow="0">
      <root>
        <mxCell id="0" />
        <mxCell id="1" parent="0" />
        <mxCell id="_rDbfUGE9FX2aeMTutwk-12" value="" style="rounded=1;whiteSpace=wrap;html=1;fillColor=#FFFFFF;strokeColor=#66B2FF;dashed=1;strokeWidth=5;" vertex="1" parent="1">
          <mxGeometry x="100" y="285" width="590" height="280" as="geometry" />
        </mxCell>
        <mxCell id="_rDbfUGE9FX2aeMTutwk-3" value="" style="rounded=1;whiteSpace=wrap;html=1;fillColor=#fff2cc;strokeColor=#D6B656;dashed=1;strokeWidth=5;" vertex="1" parent="1">
          <mxGeometry x="420" y="340" width="220" height="170" as="geometry" />
        </mxCell>
        <mxCell id="_rDbfUGE9FX2aeMTutwk-5" value="&lt;b&gt;Flask App&lt;/b&gt;" style="rounded=1;whiteSpace=wrap;html=1;fillColor=#f8cecc;strokeColor=none;" vertex="1" parent="1">
          <mxGeometry x="480" y="388" width="120" height="60" as="geometry" />
        </mxCell>
        <mxCell id="_rDbfUGE9FX2aeMTutwk-4" value="" style="shape=image;verticalLabelPosition=bottom;labelBackgroundColor=default;verticalAlign=top;aspect=fixed;imageAspect=0;image=https://flask-training-courses.uk/images/flask-logo.png;" vertex="1" parent="1">
          <mxGeometry x="579.61" y="418" width="30.39" height="40" as="geometry" />
        </mxCell>
        <mxCell id="_rDbfUGE9FX2aeMTutwk-6" value="&lt;b style=&quot;font-size: 10px&quot;&gt;SQL&lt;br&gt;Alchemy&lt;/b&gt;" style="rounded=1;whiteSpace=wrap;html=1;fillColor=#ffe6cc;strokeColor=none;" vertex="1" parent="1">
          <mxGeometry x="450" y="428" width="60" height="60" as="geometry" />
        </mxCell>
        <mxCell id="_rDbfUGE9FX2aeMTutwk-7" value="" style="shape=image;verticalLabelPosition=bottom;labelBackgroundColor=default;verticalAlign=top;aspect=fixed;imageAspect=0;image=https://hackersandslackers-cdn.storage.googleapis.com/2020/08/sqlalchemy2.png;" vertex="1" parent="1">
          <mxGeometry x="490" y="463" width="40" height="40" as="geometry" />
        </mxCell>
        <mxCell id="_rDbfUGE9FX2aeMTutwk-8" value="" style="rounded=1;whiteSpace=wrap;html=1;fillColor=#9AC7BF;strokeColor=#67AB9F;dashed=1;strokeWidth=5;" vertex="1" parent="1">
          <mxGeometry x="140.005" y="340" width="220" height="170" as="geometry" />
        </mxCell>
        <mxCell id="_rDbfUGE9FX2aeMTutwk-9" value="&lt;font style=&quot;font-size: 16px&quot; color=&quot;#59759e&quot;&gt;&lt;b&gt;MySQL Container&lt;/b&gt;&lt;/font&gt;" style="text;html=1;strokeColor=none;fillColor=none;align=center;verticalAlign=middle;whiteSpace=wrap;rounded=0;dashed=1;fontSize=10;" vertex="1" parent="1">
          <mxGeometry x="165.01" y="350" width="170" height="30" as="geometry" />
        </mxCell>
        <mxCell id="_rDbfUGE9FX2aeMTutwk-10" value="&lt;font style=&quot;font-size: 16px&quot; color=&quot;#ea6b66&quot;&gt;&lt;b&gt;Flask App Container&lt;/b&gt;&lt;/font&gt;" style="text;html=1;strokeColor=none;fillColor=none;align=center;verticalAlign=middle;whiteSpace=wrap;rounded=0;dashed=1;fontSize=10;" vertex="1" parent="1">
          <mxGeometry x="445" y="350" width="170" height="30" as="geometry" />
        </mxCell>
        <mxCell id="_rDbfUGE9FX2aeMTutwk-11" value="" style="shape=image;verticalLabelPosition=bottom;labelBackgroundColor=default;verticalAlign=top;aspect=fixed;imageAspect=0;image=https://www.mysql.com/common/logos/logo-mysql-170x115.png;" vertex="1" parent="1">
          <mxGeometry x="198.24" y="390" width="103.53" height="70" as="geometry" />
        </mxCell>
        <mxCell id="_rDbfUGE9FX2aeMTutwk-13" value="&lt;font size=&quot;1&quot; color=&quot;#66b2ff&quot;&gt;&lt;b style=&quot;font-size: 18px&quot;&gt;Docker Swarm&lt;/b&gt;&lt;/font&gt;" style="text;html=1;strokeColor=none;fillColor=none;align=center;verticalAlign=middle;whiteSpace=wrap;rounded=0;dashed=1;fontSize=10;" vertex="1" parent="1">
          <mxGeometry x="310" y="300" width="170" height="30" as="geometry" />
        </mxCell>
        <mxCell id="_rDbfUGE9FX2aeMTutwk-14" value="" style="shape=image;verticalLabelPosition=bottom;labelBackgroundColor=default;verticalAlign=top;aspect=fixed;imageAspect=0;image=https://raw.githubusercontent.com/docker-library/docs/471fa6e4cb58062ccbf91afc111980f9c7004981/swarm/logo.png;" vertex="1" parent="1">
          <mxGeometry x="640" y="525" width="72.11" height="60" as="geometry" />
        </mxCell>
        <mxCell id="_rDbfUGE9FX2aeMTutwk-15" value="" style="endArrow=classic;html=1;rounded=0;fontSize=18;fontColor=#66B2FF;strokeColor=#D6B656;strokeWidth=2;" edge="1" parent="1">
          <mxGeometry width="50" height="50" relative="1" as="geometry">
            <mxPoint x="450" y="460" as="sourcePoint" />
            <mxPoint x="360" y="460" as="targetPoint" />
          </mxGeometry>
        </mxCell>
        <mxCell id="_rDbfUGE9FX2aeMTutwk-16" value="" style="endArrow=classic;html=1;rounded=0;fontSize=18;fontColor=#66B2FF;strokeWidth=2;strokeColor=#67AB9F;entryX=0;entryY=0.75;entryDx=0;entryDy=0;" edge="1" parent="1" target="_rDbfUGE9FX2aeMTutwk-6">
          <mxGeometry width="50" height="50" relative="1" as="geometry">
            <mxPoint x="360" y="473" as="sourcePoint" />
            <mxPoint x="320" y="380" as="targetPoint" />
          </mxGeometry>
        </mxCell>
      </root>
    </mxGraphModel>
  </diagram>
</mxfile>
